# xmcd
# 
# Track frame offsets:
#     150
#     12675
#     30339
#     46243
#     69659
#     83149
#     100147
#     113875
#     129053
#     142051
#     155266
#     166703
# 
# Disc length: 2557
# 
# Revision: 2
# Processed by: cddbd v1.5.2PL0 Copyright (c) Steve Scherf et al.
# Submitted via: fre:ac v1.0.31
# 
DISCID=9009fb0c
DTITLE=Annie Lennox - Nostalgia
DYEAR=2014
DGENRE=Rock/Pop
TTITLE0=Memphis In June
TTITLE1=Georgia On My Mind
TTITLE2=I Put A Spell On You
TTITLE3=Summertime
TTITLE4=I Cover The Waterfront
TTITLE5=Strange Fruit
TTITLE6=God Bless The Child
TTITLE7=You Belong To Me
TTITLE8=September In The Rain
TTITLE9=I Can Dream Can't I?
TTITLE10=The Nearness Of You
TTITLE11=Mood Indigo
EXTD=
EXTT0=
EXTT1=
EXTT2=
EXTT3=
EXTT4=
EXTT5=
EXTT6=
EXTT7=
EXTT8=
EXTT9=
EXTT10=
EXTT11=
PLAYORDER=
